<svg width="35" height="18" viewBox="0 0 35 18" fill="none" xmlns="http://www.w3.org/2000/svg">
<g clip-path="url(#clip0_1_2)">
<path d="M26.22 0H8.74C3.91303 0 0 3.91303 0 8.74C0 13.567 3.91303 17.48 8.74 17.48H26.22C31.047 17.48 34.96 13.567 34.96 8.74C34.96 3.91303 31.047 0 26.22 0Z" fill="#E1E4E5"/>
<path d="M26.2 17.21C30.8779 17.21 34.67 13.4179 34.67 8.74C34.67 4.06215 30.8779 0.27 26.2 0.27C21.5221 0.27 17.73 4.06215 17.73 8.74C17.73 13.4179 21.5221 17.21 26.2 17.21Z" fill="white"/>
<path d="M7.835 10.4C7.345 10.4 6.94333 10.225 6.63 9.875C6.31333 9.52833 6.155 9.075 6.155 8.515C6.155 7.965 6.31333 7.51833 6.63 7.175C6.94667 6.835 7.34833 6.665 7.835 6.665C8.32833 6.665 8.735 6.835 9.055 7.175C9.37167 7.52167 9.53 7.96833 9.53 8.515C9.53 9.075 9.37167 9.52833 9.055 9.875C8.735 10.225 8.32833 10.4 7.835 10.4ZM7.06 9.5C7.25667 9.74667 7.51667 9.87 7.84 9.87C8.16333 9.87 8.425 9.74667 8.625 9.5C8.82167 9.25333 8.92 8.925 8.92 8.515C8.92 8.12167 8.82167 7.80167 8.625 7.555C8.425 7.315 8.16333 7.195 7.84 7.195C7.51333 7.195 7.25333 7.315 7.06 7.555C6.86333 7.80167 6.765 8.12167 6.765 8.515C6.765 8.925 6.86333 9.25333 7.06 9.5ZM12.4122 9.34V6.74H13.0022V10.3H12.3722L10.7422 7.71V10.3H10.1522V6.74H10.7722L12.4122 9.34Z" fill="#A0ACAF"/>
<path d="M27.31 6C27.2838 5.72507 27.1561 5.46978 26.9518 5.28398C26.7474 5.09819 26.4812 4.99524 26.205 4.99524C25.9288 4.99524 25.6626 5.09819 25.4582 5.28398C25.2539 5.46978 25.1262 5.72507 25.1 6V8.86C25.1 9.15439 25.2169 9.43672 25.4251 9.64489C25.6333 9.85305 25.9156 9.97 26.21 9.97C26.5044 9.97 26.7867 9.85305 26.9949 9.64489C27.2031 9.43672 27.32 9.15439 27.32 8.86V6H27.31Z" fill="#A0ACAF"/>
<path d="M28.68 8.75C28.68 8.67309 28.6494 8.59932 28.5951 8.54494C28.5407 8.49055 28.4669 8.46 28.39 8.46C28.3131 8.46 28.2393 8.49055 28.1849 8.54494C28.1306 8.59932 28.1 8.67309 28.1 8.75C28.0652 9.2288 27.8504 9.67668 27.4989 10.0036C27.1473 10.3305 26.6851 10.5122 26.205 10.5122C25.7249 10.5122 25.2627 10.3305 24.9111 10.0036C24.5596 9.67668 24.3448 9.2288 24.31 8.75C24.318 8.70672 24.3164 8.6622 24.3053 8.61962C24.2941 8.57703 24.2738 8.53741 24.2456 8.50358C24.2175 8.46974 24.1822 8.44251 24.1423 8.42383C24.1025 8.40514 24.059 8.39546 24.015 8.39546C23.971 8.39546 23.9275 8.40514 23.8877 8.42383C23.8478 8.44251 23.8125 8.46974 23.7844 8.50358C23.7562 8.53741 23.7359 8.57703 23.7247 8.61962C23.7136 8.6622 23.712 8.70672 23.72 8.75C23.7229 9.35639 23.947 9.94089 24.3502 10.3938C24.7534 10.8467 25.308 11.1369 25.91 11.21V12H25.09C25.0131 12 24.9393 12.0306 24.8849 12.0849C24.8306 12.1393 24.8 12.2131 24.8 12.29C24.8 12.3669 24.8306 12.4407 24.8849 12.4951C24.9393 12.5494 25.0131 12.58 25.09 12.58H27.31C27.3869 12.58 27.4607 12.5494 27.5151 12.4951C27.5694 12.4407 27.6 12.3669 27.6 12.29C27.6 12.2131 27.5694 12.1393 27.5151 12.0849C27.4607 12.0306 27.3869 12 27.31 12H26.49V11.21C27.092 11.1369 27.6466 10.8467 28.0498 10.3938C28.453 9.94089 28.6771 9.35639 28.68 8.75Z" fill="#A0ACAF"/>
</g>
<defs>
<clipPath id="clip0_1_2">
<rect width="34.96" height="17.48" fill="white"/>
</clipPath>
</defs>
</svg>
