<?xml version="1.0" encoding="UTF-8"?><svg id="Layer_2" xmlns="http://www.w3.org/2000/svg" viewBox="0 0 109.72 109.72"><defs><style>.cls-1{fill:#898989;}.cls-2{fill:#606060;}</style></defs><g id="Layer_1-2"><rect class="cls-1" width="109.72" height="109.72" rx="3.91" ry="3.91"/><path class="cls-2" d="m70.47,35.35s0-.02,0-.03c0-.24.05-.64-.31-.61-1.22.11-2.45.4-3.66.59s-2.51.41-3.77.61c-2.51.41-5.03.82-7.54,1.23s-5.03.82-7.54,1.23l-1.47.24c-.12.02-.26.05-.34.14-.08.1-.09.24-.09.36,0,2.51,0,5.02,0,7.53,0,1.97,0,3.95,0,5.92,0,4.4,0,8.79,0,13.19,0,.13,0,.26,0,.38-.07.73-.98.22-1.35.12-.57-.16-1.15-.21-1.74-.22-2.01-.03-4,.44-5.75,1.42-.85.47-1.64,1.06-2.25,1.81-.77.93-1.35,2.24-1.06,3.46.28,1.17,1.46,2.01,2.52,2.41,1.84.69,4.07.58,5.95.1,1.8-.46,3.59-1.39,4.74-2.88.25-.33.58-.91.74-1.29.21-.51.35-1.04.35-1.6,0-7.05,0-14.1,0-21.16,0-.69,0-1.38,0-2.07,0-.1.07-.18.16-.19l7.38-1.19c2.51-.41,5.03-.81,7.54-1.22,1.68-.27,3.36-.58,5.05-.82.12-.02.23.08.22.2-.02.76,0,1.53,0,2.29v2.72h0s0,.01,0,.01c0,1.9,0,3.8,0,5.7,0,1.46,0,2.92,0,4.38,0,1.41.06,2.85,0,4.25,0,.11-.05.21-.12.28-.15.14-.29.07-.42.02-2.42-1.06-5.4-.43-7.7.67-.85.41-1.67.92-2.34,1.59-1.19,1.18-2.23,3.43-1.01,4.95,1.3,1.62,3.67,2.06,5.65,1.91,2.32-.17,4.77-.99,6.49-2.61.9-.85,1.58-2.02,1.63-3.27.07-1.53.04-3.09.04-4.62,0-2.55,0-5.09,0-7.64s0-5.09,0-7.64,0-5.04,0-7.56c0-.69,0-1.37,0-2.06,0-.35,0-.7,0-1.04Z"/></g></svg>