<?xml version="1.0" encoding="UTF-8"?><svg id="Layer_2" xmlns="http://www.w3.org/2000/svg" viewBox="0 0 28.23 16.09"><defs><style>.cls-1{fill:#777;}</style></defs><g id="Layer_1-2"><path class="cls-1" d="m14.12,7.4c0-.2,0-.41,0-.61,0-1.61,0-3.23,0-4.84,0-.44.06-.88.3-1.27.36-.57.94-.77,1.63-.62.52.11.94.41,1.38.67,3.22,1.9,6.43,3.81,9.64,5.72.28.16.53.36.75.59.54.57.54,1.45,0,2.02-.26.28-.58.49-.91.68-3.37,2-6.74,4-10.12,5.99-.34.2-.71.33-1.11.35-.65.03-1.23-.37-1.43-.99-.1-.33-.14-.67-.14-1.01,0-1.68,0-3.35,0-5.03,0-.12.03-.24-.03-.35-1.49,1.4-3.36,2.21-5.08,3.26-2.05,1.26-4.15,2.47-6.22,3.7-.25.15-.52.27-.81.35-1.01.27-1.86-.32-1.93-1.37C.02,14.05,0,13.45,0,12.85c0-3.5,0-7,.01-10.5,0-.32.02-.64.05-.95C.2.22,1.28-.34,2.42.22c.63.31,1.21.69,1.81,1.04,2.73,1.62,5.46,3.24,8.19,4.85.6.36,1.19.73,1.7,1.28Z"/></g></svg>