<?xml version="1.0" encoding="UTF-8"?><svg id="Layer_2" xmlns="http://www.w3.org/2000/svg" viewBox="0 0 23.57 26.15"><defs><style>.cls-1{fill:#777;}</style></defs><g id="Layer_1-2"><path class="cls-1" d="m2.63,0c.66-.04,1.37.33,2.06.73,4.61,2.67,9.22,5.34,13.83,8.01,1.1.64,2.2,1.28,3.3,1.93.47.28.91.61,1.26,1.06.7.9.65,2.04-.13,2.86-.74.78-1.7,1.24-2.61,1.76-5.17,3-10.34,5.99-15.52,8.99-.35.2-.71.39-1.08.54-1.94.81-3.66-.3-3.74-2.41,0-.27,0-.54,0-.81C0,16.07,0,9.46,0,2.86c0-.6.13-1.17.43-1.69C.88.39,1.55,0,2.63,0Z"/></g></svg>