<?xml version="1.0" encoding="UTF-8"?><svg id="Layer_2" xmlns="http://www.w3.org/2000/svg" viewBox="0 0 28.3 16.09"><defs><style>.cls-1{fill:#777;}</style></defs><g id="Layer_1-2"><path class="cls-1" d="m14.17,7.51c.33-.51.79-.86,1.28-1.16,3.38-2.01,6.77-4.01,10.15-6.01.02-.01.04-.03.06-.04,1.38-.77,2.62-.06,2.62,1.52.01,3.27,0,6.53,0,9.8,0,.92.01,1.84,0,2.75-.02.98-.63,1.68-1.47,1.71-.46.02-.87-.15-1.25-.38-1.82-1.07-3.63-2.14-5.44-3.21-1.44-.85-2.89-1.71-4.33-2.57-.6-.36-1.19-.72-1.57-1.36-.09.15-.05.29-.05.41,0,1.76,0,3.52,0,5.29,0,.29-.04.56-.15.82-.32.82-1.01,1.17-1.86.92-.54-.15-1-.46-1.47-.74-2.98-1.77-5.97-3.53-8.95-5.3-.37-.22-.74-.44-1.06-.72-.91-.78-.91-1.64,0-2.42.59-.5,1.29-.85,1.95-1.24,2.85-1.7,5.71-3.39,8.57-5.08.18-.11.36-.21.55-.29,1.26-.57,2.35-.02,2.4,1.5.06,1.8.01,3.6.01,5.39,0,.13,0,.27,0,.4Z"/></g></svg>