<?xml version="1.0" encoding="UTF-8"?>
<svg id="Layer_1" data-name="Layer 1" xmlns="http://www.w3.org/2000/svg" viewBox="0 0 15.95 43.89">
  <defs>
    <style>
      .cls-1 {
        fill: #777;
      }
    </style>
  </defs>
  <path class="cls-1" d="m7.99,36.16c-1,0-1.82.81-1.82,1.82s.81,1.82,1.82,1.82,1.82-.81,1.82-1.82-.81-1.82-1.82-1.82Z"/>
  <path class="cls-1" d="m7.54,21.52h1.43v-7.21h-1.24l-.04.2c-.06.33-.19.58-.4.76-.22.19-.56.28-1.01.28h-.28v1.43h1.54v4.54Z"/>
  <path class="cls-1" d="m11.84,14.63h-.11c-.35,0-.62.28-.62.62s.28.62.62.62h.11c1.43,0,2.6,1.16,2.6,2.6v4.44c0,1.43-1.16,2.6-2.6,2.6h-2.78l1.62-1.62c.24-.24.24-.64,0-.88s-.64-.24-.88,0l-2.69,2.69c-.06.06-.1.13-.13.2-.03.08-.05.16-.05.24s.02.17.05.24c.03.08.08.14.13.2l2.5,2.5c.12.12.28.18.44.18s.32-.06.44-.18c.24-.24.24-.64,0-.88l-1.44-1.44h2.78c2.12,0,3.85-1.73,3.85-3.85v-4.44c0-2.12-1.73-3.85-3.85-3.85Z"/>
  <path class="cls-1" d="m4.18,15.88c.35,0,.59-.28.59-.62s-.31-.62-.66-.62c-2.12,0-3.85,1.73-3.85,3.85v4.44c0,2.12,1.73,3.85,3.85,3.85.35,0,.62-.28.62-.62s-.28-.62-.62-.62c-1.43,0-2.6-1.16-2.6-2.6v-4.44c0-1.43,1.16-2.6,2.67-2.6Z"/>
</svg>