<?xml version="1.0" encoding="UTF-8"?>
<svg id="Layer_1" data-name="Layer 1" xmlns="http://www.w3.org/2000/svg" viewBox="0 0 15.95 43.89">
  <defs>
    <style>
      .cls-1 {
        fill: #777;
      }
    </style>
  </defs>
  <path class="cls-1" d="m11.84,14.63h-7.74c-2.12,0-3.85,1.73-3.85,3.85v4.44c0,2.12,1.73,3.85,3.85,3.85.35,0,.62-.28.62-.62s-.28-.62-.62-.62c-1.43,0-2.6-1.16-2.6-2.6v-4.44c0-1.43,1.16-2.6,2.6-2.6h7.74c1.43,0,2.6,1.16,2.6,2.6v4.44c0,1.43-1.16,2.6-2.6,2.6h-2.78l1.62-1.62c.24-.24.24-.64,0-.88s-.64-.24-.88,0l-2.69,2.69c-.06.06-.1.13-.14.2-.06.15-.06.32,0,.48.03.08.08.15.14.2l2.5,2.5c.12.12.28.18.44.18s.32-.06.44-.18c.24-.24.24-.64,0-.88l-1.44-1.44h2.78c2.12,0,3.85-1.73,3.85-3.85v-4.44c0-2.12-1.73-3.85-3.85-3.85Z"/>
</svg>