<?xml version="1.0" encoding="utf-8"?>
<!-- Generator: Adobe Illustrator 27.4.0, SVG Export Plug-In . SVG Version: 6.00 Build 0)  -->
<svg version="1.1" id="Layer_1" xmlns="http://www.w3.org/2000/svg" xmlns:xlink="http://www.w3.org/1999/xlink" x="0px" y="0px"
	 viewBox="0 0 20 20" style="enable-background:new 0 0 20 20;" xml:space="preserve">
<style type="text/css">
	.st0{fill:#B0B0B0;}
</style>
<g>
	<path class="st0" d="M6.83,11.86c0.5-0.5,1.04-1.04,1.61-1.61c1.64-1.64,3.47-3.47,4.98-4.98c1.33-1.33,2.41-2.41,2.88-2.88
		l-0.67-0.7l0,0v0c-0.15,0.15-0.77,0.77-1.66,1.66c-0.17,0.17-0.36,0.36-0.55,0.55C13.33,4,13.24,4.08,13.15,4.18
		c-0.29,0.29-0.6,0.6-0.92,0.92c-0.41,0.41-0.83,0.83-1.27,1.27c-0.19,0.19-0.39,0.39-0.59,0.59c-0.08,0.08-0.15,0.15-0.23,0.23
		c-1.23,1.23-2.49,2.49-3.57,3.57c-0.3,0.3-0.59,0.59-0.86,0.86c-0.28,0.28-0.54,0.54-0.77,0.77c-0.21,0.21-0.4,0.4-0.56,0.56
		c-0.36,0.36-0.6,0.6-0.68,0.68c0.23,0.23,0.46,0.46,0.69,0.69c0.21-0.21,0.56-0.56,0.99-0.99c0.21-0.21,0.45-0.45,0.71-0.71
		C6.32,12.37,6.57,12.12,6.83,11.86z"/>
	<path class="st0" d="M6.57,9.34l2.38-2.38l4.33-4.33c-0.06-0.18-0.12-0.37-0.2-0.54c-0.93-1.84-3.1-2.36-4.72-1.48
		c-1.03,0.56-1.62,1.44-1.76,2.6C6.55,3.59,6.56,3.98,6.56,4.36C6.56,6.02,6.56,7.68,6.57,9.34z"/>
	<path class="st0" d="M10.62,13.87c1.57-0.24,2.78-1.65,2.8-3.24c0.01-1.19,0-2.37,0-3.56c0-0.12,0-0.25,0-0.37l-6.03,6.03
		C8.22,13.7,9.31,14.07,10.62,13.87z"/>
	<path class="st0" d="M15.37,7.08c-0.33,0-0.65,0-0.97,0c0,0.07,0,0.12,0,0.18c0,1.08,0,2.16,0,3.24c0,1.4-0.55,2.55-1.63,3.44
		c-1.44,1.19-3.58,1.27-5.07,0.34c-0.4-0.25-0.74-0.54-1.03-0.85l-0.69,0.69c0.71,0.79,1.65,1.34,2.83,1.63
		c0.22,0.05,0.45,0.08,0.68,0.12c0,0.98,0,1.96,0,2.96c-0.98,0-1.95,0-2.93,0c0,0.33,0,0.65,0,0.97c2.28,0,4.56,0,6.84,0
		c0-0.33,0-0.65,0-0.98c-0.98,0-1.95,0-2.93,0c0-0.99,0-1.97,0-2.96c0.02,0,0.04-0.01,0.05-0.01c0.54-0.05,1.07-0.16,1.56-0.39
		c2.01-0.92,3.14-2.48,3.26-4.7c0.07-1.21,0.02-2.43,0.02-3.65C15.38,7.11,15.38,7.09,15.37,7.08z"/>
	<path class="st0" d="M4.65,11.26l0.94-0.94C5.57,9.28,5.58,8.24,5.58,7.2c0-0.04,0-0.08,0-0.13c-0.33,0-0.65,0-0.98,0
		c0,0.04,0,0.06,0,0.09c0,1.12,0,2.25,0,3.37C4.6,10.78,4.62,11.02,4.65,11.26z"/>
</g>
</svg>
