<svg width="35" height="18" viewBox="0 0 35 18" fill="none" xmlns="http://www.w3.org/2000/svg">
<g clip-path="url(#clip0_1_8)">
<path d="M26.22 0H8.74C3.91303 0 0 3.91303 0 8.74C0 13.567 3.91303 17.48 8.74 17.48H26.22C31.047 17.48 34.96 13.567 34.96 8.74C34.96 3.91303 31.047 0 26.22 0Z" fill="#3F3F3F"/>
<path d="M8.76 17.21C13.4379 17.21 17.23 13.4179 17.23 8.74C17.23 4.06215 13.4379 0.27 8.76 0.27C4.08215 0.27 0.29 4.06215 0.29 8.74C0.29 13.4179 4.08215 17.21 8.76 17.21Z" fill="white"/>
<path d="M22.095 10.63C21.605 10.63 21.2033 10.455 20.89 10.105C20.5733 9.75833 20.415 9.305 20.415 8.745C20.415 8.195 20.5733 7.74833 20.89 7.405C21.2067 7.065 21.6083 6.895 22.095 6.895C22.5883 6.895 22.995 7.065 23.315 7.405C23.6317 7.75167 23.79 8.19833 23.79 8.745C23.79 9.305 23.6317 9.75833 23.315 10.105C22.995 10.455 22.5883 10.63 22.095 10.63ZM21.32 9.73C21.5167 9.97667 21.7767 10.1 22.1 10.1C22.4233 10.1 22.685 9.97667 22.885 9.73C23.0817 9.48333 23.18 9.155 23.18 8.745C23.18 8.35167 23.0817 8.03167 22.885 7.785C22.685 7.545 22.4233 7.425 22.1 7.425C21.7733 7.425 21.5133 7.545 21.32 7.785C21.1233 8.03167 21.025 8.35167 21.025 8.745C21.025 9.155 21.1233 9.48333 21.32 9.73ZM26.8872 6.97V7.505H25.0172V8.445H26.6072V8.98H25.0172V10.53H24.4122V6.97H26.8872ZM29.812 6.97V7.505H27.942V8.445H29.532V8.98H27.942V10.53H27.337V6.97H29.812Z" fill="white"/>
<path d="M9.87 6C9.84382 5.72507 9.71609 5.46978 9.51175 5.28398C9.30742 5.09819 9.04117 4.99524 8.765 4.99524C8.48883 4.99524 8.22258 5.09819 8.01824 5.28398C7.81391 5.46978 7.68618 5.72507 7.66 6V8.86C7.66 9.15439 7.77695 9.43672 7.98511 9.64489C8.19328 9.85305 8.47561 9.97 8.77 9.97C9.06439 9.97 9.34672 9.85305 9.55489 9.64489C9.76305 9.43672 9.88 9.15439 9.88 8.86V6H9.87Z" fill="#A0ACAF"/>
<path d="M11.24 8.75C11.24 8.67309 11.2094 8.59932 11.1551 8.54494C11.1007 8.49055 11.0269 8.46 10.95 8.46C10.8731 8.46 10.7993 8.49055 10.7449 8.54494C10.6906 8.59932 10.66 8.67309 10.66 8.75C10.6252 9.2288 10.4104 9.67668 10.0589 10.0036C9.70734 10.3305 9.24507 10.5122 8.765 10.5122C8.28493 10.5122 7.82266 10.3305 7.47112 10.0036C7.11957 9.67668 6.9048 9.2288 6.87 8.75C6.878 8.70672 6.87638 8.6622 6.86526 8.61962C6.85413 8.57703 6.83376 8.53741 6.80561 8.50358C6.77746 8.46974 6.7422 8.44251 6.70235 8.42383C6.66249 8.40514 6.61902 8.39546 6.575 8.39546C6.53098 8.39546 6.48751 8.40514 6.44765 8.42383C6.4078 8.44251 6.37254 8.46974 6.34439 8.50358C6.31624 8.53741 6.29587 8.57703 6.28474 8.61962C6.27362 8.6622 6.272 8.70672 6.28 8.75C6.28289 9.35639 6.50696 9.94089 6.91017 10.3938C7.31339 10.8467 7.86802 11.1369 8.47 11.21V12H7.65C7.57309 12 7.49932 12.0306 7.44494 12.0849C7.39055 12.1393 7.36 12.2131 7.36 12.29C7.36 12.3669 7.39055 12.4407 7.44494 12.4951C7.49932 12.5494 7.57309 12.58 7.65 12.58H9.87C9.94691 12.58 10.0207 12.5494 10.0751 12.4951C10.1294 12.4407 10.16 12.3669 10.16 12.29C10.16 12.2131 10.1294 12.1393 10.0751 12.0849C10.0207 12.0306 9.94691 12 9.87 12H9.05V11.21C9.65198 11.1369 10.2066 10.8467 10.6098 10.3938C11.013 9.94089 11.2371 9.35639 11.24 8.75Z" fill="#A0ACAF"/>
</g>
<defs>
<clipPath id="clip0_1_8">
<rect width="34.96" height="17.48" fill="white"/>
</clipPath>
</defs>
</svg>
