<svg width="259" height="339" viewBox="0 0 259 339" fill="none" xmlns="http://www.w3.org/2000/svg">
<path d="M246.289 152.43C242.119 142.37 237.359 132.5 232.679 122.89C224.456 105.962 215.247 89.5304 205.099 73.6803C192.689 54.3103 178.629 35.5702 160.339 21.6202C141.339 7.15024 116.909 -2.06976 92.8792 1.87024C88.5085 2.5188 84.2159 3.61457 80.0692 5.14026C57.8492 13.2903 41.2592 32.8403 37.7392 56.3903C36.2491 66.3903 37.0691 76.7204 36.4492 86.7904C36.4492 93.3404 35.4492 100.08 34.6792 106.57C34.1492 111.03 34.8792 115.15 33.2292 119.57C31.8343 122.927 30.0915 126.127 28.0292 129.12C20.5892 140.76 12.7592 152.43 8.21916 165.57C3.38552 179.527 0.901777 194.19 0.869157 208.96C0.854597 237.75 10.4608 265.719 28.1618 288.425C45.8627 311.13 70.6432 327.27 98.5668 334.279C126.49 341.289 155.956 338.767 182.282 327.113C208.608 315.46 230.285 295.344 243.869 269.96C257.639 244.31 261.929 214.07 256.699 185.49C254.589 174.04 250.719 163.13 246.289 152.43Z" fill="url(#paint0_linear_4_2)"/>
<path d="M146.609 37.4504C149.823 37.4504 152.429 34.8447 152.429 31.6304C152.429 28.4161 149.823 25.8105 146.609 25.8105C143.395 25.8105 140.789 28.4161 140.789 31.6304C140.789 34.8447 143.395 37.4504 146.609 37.4504Z" fill="#EDEDED"/>
<path d="M156.44 42.1104C158.66 42.1104 160.46 40.3105 160.46 38.0903C160.46 35.8701 158.66 34.0703 156.44 34.0703C154.22 34.0703 152.42 35.8701 152.42 38.0903C152.42 40.3105 154.22 42.1104 156.44 42.1104Z" fill="#EDEDED"/>
<path d="M51.1403 303.361C54.3546 303.361 56.9603 300.755 56.9603 297.541C56.9603 294.326 54.3546 291.721 51.1403 291.721C47.926 291.721 45.3203 294.326 45.3203 297.541C45.3203 300.755 47.926 303.361 51.1403 303.361Z" fill="#EDEDED"/>
<path d="M60.9692 308.021C63.1894 308.021 64.9892 306.221 64.9892 304C64.9892 301.78 63.1894 299.98 60.9692 299.98C58.749 299.98 56.9492 301.78 56.9492 304C56.9492 306.221 58.749 308.021 60.9692 308.021Z" fill="#EDEDED"/>
<path d="M64.1406 52.0303V57.9602" stroke="black" stroke-width="5" stroke-miterlimit="10" stroke-linecap="round"/>
<path d="M79.5703 52.0303V57.9602" stroke="black" stroke-width="5" stroke-miterlimit="10" stroke-linecap="round"/>
<path d="M78.2097 67.8799C78.2097 69.5746 77.5365 71.2001 76.3381 72.3984C75.1397 73.5968 73.5144 74.27 71.8197 74.27C70.125 74.27 68.4996 73.5968 67.3013 72.3984C66.1029 71.2001 65.4297 69.5746 65.4297 67.8799" stroke="black" stroke-width="5" stroke-miterlimit="10" stroke-linecap="round"/>
<defs>
<linearGradient id="paint0_linear_4_2" x1="18.7292" y1="280.31" x2="219.699" y2="79.3403" gradientUnits="userSpaceOnUse">
<stop stop-color="white"/>
<stop offset="1" stop-color="#D6D6D6"/>
</linearGradient>
</defs>
</svg>
