<?xml version="1.0" encoding="UTF-8"?>
<svg id="Layer_1" data-name="Layer 1" xmlns="http://www.w3.org/2000/svg" viewBox="0 0 15.95 43.89">
  <defs>
    <style>
      .cls-1 {
        fill: #777;
      }

      .cls-2 {
        fill: #aeb6b7;
      }
    </style>
  </defs>
  <path class="cls-1" d="m2.91,19.11l3.71-3.71c.15-.15.42-.05.42.17v12.74c0,.22-.26.33-.42.17l-3.69-3.69s-.11-.07-.17-.07H.24c-.14,0-.25-.11-.25-.25v-5.05c0-.14.11-.25.25-.25h2.5c.07,0,.13-.03.17-.07Z"/>
  <path class="cls-1" d="m8.91,24.79l-.73-.39c1.44-2.7.07-5.07.01-5.17l.71-.42c.07.11,1.68,2.86.01,5.98Z"/>
  <path class="cls-1" d="m11.14,26.87l-.68-.46c3.37-5-.15-9.07-.3-9.24l.61-.55s4.1,4.7.37,10.25Z"/>
  <path class="cls-2" d="m13.34,29.05l-.65-.51c5.42-6.92.24-12.89.02-13.14l.61-.55c.06.07,5.87,6.73.02,14.2Z"/>
</svg>