<?xml version="1.0" encoding="UTF-8"?>
<svg id="Layer_1" data-name="Layer 1" xmlns="http://www.w3.org/2000/svg" viewBox="0 0 15.95 43.89">
  <defs>
    <style>
      .cls-1 {
        fill: #777;
      }
    </style>
  </defs>
  <g>
    <path class="cls-1" d="m15.89,25.82c-.03-.08-.08-.15-.14-.2l-2.5-2.5c-.24-.24-.64-.24-.88,0s-.24.64,0,.88l1.44,1.44h-1.74c-.96,0-1.87-.41-2.5-1.12l-.65-.73c-.23-.26-.63-.28-.88-.05-.26.23-.28.62-.05.88l.65.73c.87.98,2.12,1.54,3.44,1.54h1.74l-1.62,1.62c-.24.24-.24.64,0,.88.12.12.28.18.44.18s.32-.06.44-.18l2.69-2.69c.06-.06.1-.13.14-.2.06-.15.06-.32,0-.48Z"/>
    <path class="cls-1" d="m15.76,17.27l-2.5-2.5c-.24-.24-.64-.24-.88,0s-.24.64,0,.88l1.44,1.44h-1.23c-1.63,0-3.2.7-4.29,1.91l-5.4,6.01c-.58.64-1.41,1.01-2.27,1.01-.35,0-.62.28-.62.62s.28.62.62.62c1.22,0,2.39-.52,3.2-1.43l5.4-6.01c.86-.95,2.08-1.5,3.36-1.5h1.23l-1.62,1.62c-.24.24-.24.64,0,.88.12.12.28.18.44.18s.32-.06.44-.18l2.69-2.69c.06-.06.1-.13.14-.2.06-.15.06-.32,0-.48-.03-.08-.08-.15-.14-.2Z"/>
    <path class="cls-1" d="m.75,17.75c.81,0,1.58.35,2.12.95l1.3,1.46c.12.14.29.21.47.21.15,0,.3-.05.42-.16.26-.23.28-.63.05-.88l-1.3-1.46c-.78-.87-1.89-1.37-3.06-1.37-.35,0-.62.28-.62.62s.28.62.62.62Z"/>
  </g>
  <path class="cls-1" d="m7.97,36.19c-1,0-1.82.81-1.82,1.82s.81,1.82,1.82,1.82,1.82-.81,1.82-1.82-.81-1.82-1.82-1.82Z"/>
</svg>