<?xml version="1.0" encoding="UTF-8"?><svg id="Layer_2" xmlns="http://www.w3.org/2000/svg" viewBox="0 0 39.35 10.92"><defs><style>.cls-1{fill-rule:evenodd;}.cls-1,.cls-2{fill:#b1baba;}</style></defs><g id="Layer_1-2"><path class="cls-1" d="m14.19,3.58c0-.19.08-.35.24-.48.16-.13.39-.2.68-.2.26,0,.52.05.77.15.25.1.51.24.77.43l.53-.75c-.29-.23-.6-.41-.94-.53-.33-.12-.71-.18-1.12-.18-.28,0-.54.04-.78.12-.24.08-.44.19-.61.34-.17.15-.3.32-.4.52-.1.2-.14.43-.14.68,0,.26.04.49.13.67.08.18.21.34.37.47.16.13.36.24.59.32.24.09.51.16.81.23.26.06.48.13.65.19.16.06.29.12.39.19.09.07.16.14.19.22.04.08.05.17.05.28,0,.22-.09.4-.27.53-.18.13-.43.19-.73.19-.36,0-.68-.06-.96-.19-.28-.13-.56-.31-.83-.55l-.6.71c.34.31.71.54,1.11.68.4.15.82.22,1.26.22.3,0,.57-.04.82-.11.25-.08.46-.19.64-.33.18-.15.31-.32.41-.53.1-.21.15-.45.15-.72,0-.24-.04-.44-.12-.62-.08-.18-.19-.33-.35-.46-.15-.13-.34-.24-.57-.34-.23-.09-.49-.18-.79-.25-.27-.06-.49-.13-.67-.19-.18-.06-.31-.12-.41-.19-.1-.07-.17-.15-.21-.23-.04-.08-.06-.18-.06-.29Z"/><path class="cls-1" d="m22.39,5.63c0-.36-.06-.67-.17-.95-.11-.28-.26-.51-.45-.7-.19-.19-.4-.34-.63-.43-.24-.1-.48-.15-.74-.15-.34,0-.63.08-.86.23-.23.15-.43.34-.58.57v-.71h-.99v5.57h.99v-1.96c.14.2.33.38.57.53.23.15.52.23.88.23.25,0,.5-.05.74-.15.24-.1.45-.24.64-.43.19-.19.33-.43.45-.7.11-.28.17-.59.17-.95h0Zm-.99,0c0,.21-.03.4-.1.57-.06.17-.15.31-.26.43-.11.12-.24.21-.39.28-.15.06-.31.1-.47.1s-.33-.03-.48-.1c-.15-.06-.28-.16-.4-.28-.11-.12-.2-.27-.27-.43-.07-.17-.1-.36-.1-.57s.03-.4.1-.57c.07-.17.16-.31.27-.43.11-.12.25-.21.4-.28.15-.06.31-.1.48-.1s.33.03.47.1c.15.06.28.16.39.28.11.12.2.26.26.43.06.17.1.36.1.57Z"/><path class="cls-1" d="m27.34,5.63c0-.31-.06-.6-.17-.87-.11-.27-.27-.51-.47-.71-.2-.2-.44-.36-.72-.48-.28-.12-.58-.17-.91-.17s-.63.06-.91.18c-.28.12-.52.28-.72.48-.2.2-.36.44-.48.71-.12.27-.17.56-.17.87s.06.6.17.86c.11.27.27.5.47.7.2.2.44.36.72.48.28.12.58.17.9.17s.63-.06.92-.18c.28-.12.52-.28.73-.48.2-.2.36-.44.48-.71.12-.27.17-.56.17-.87h0Zm-.99.02c0,.19-.03.37-.09.53-.06.16-.14.31-.26.43-.11.12-.25.22-.41.3-.16.07-.34.11-.54.11-.19,0-.36-.04-.52-.11-.16-.07-.29-.17-.41-.3-.11-.12-.21-.27-.27-.44-.06-.17-.1-.35-.1-.54s.03-.37.09-.53c.06-.16.14-.31.26-.43.11-.12.25-.22.41-.3.16-.07.33-.11.53-.11s.37.04.53.11c.16.07.29.17.41.3.11.13.21.27.27.44.06.17.1.35.1.53Z"/><path class="cls-1" d="m28.99,4.32h1.15v-.83h-1.15v-1.17h-.99v1.17h-.54v.83h.54v2.26c0,.24.03.44.09.6.06.16.14.29.26.39.11.1.24.17.4.21.15.04.32.06.5.06s.35-.02.49-.06c.14-.04.27-.09.4-.16v-.8c-.19.1-.4.15-.61.15-.17,0-.3-.04-.39-.13-.09-.08-.14-.22-.14-.41v-2.11Z"/><path class="cls-1" d="m31.76,2.83v-.93h-1.06v.93h1.06Zm-.03,4.93V3.49h-.99v4.28h.99Z"/><path class="cls-1" d="m34.19,3.52v-.23c0-.43.19-.65.57-.65.11,0,.21,0,.3.03.09.02.18.04.28.08v-.83c-.11-.03-.22-.06-.35-.08-.12-.02-.27-.03-.45-.03-.42,0-.75.11-.98.34-.23.23-.34.58-.34,1.06v.31h-.54v.82h.54v3.44h.99v-3.44h1.12v-.81h-1.13Z"/><path class="cls-1" d="m39.35,3.52h-1.02l-1.11,3.18-1.22-3.18h-1.05l1.78,4.27c-.08.19-.17.32-.26.39-.09.07-.21.11-.35.11-.1,0-.2-.01-.3-.04-.09-.03-.19-.07-.28-.12l-.33.73c.15.08.31.15.47.19.16.05.34.07.55.07.17,0,.33-.02.46-.06.14-.04.26-.11.37-.21.11-.09.22-.22.31-.37.09-.15.18-.34.27-.56l1.7-4.4Z"/><path class="cls-2" d="m5.46,0C2.45,0,0,2.45,0,5.46s2.45,5.46,5.46,5.46,5.46-2.45,5.46-5.46S8.47,0,5.46,0Zm2.48,7.98c-.1.15-.29.19-.44.09-.71-.46-1.45-.72-2.24-.81-.81-.1-1.68-.03-2.65.17-.17.03-.34-.08-.37-.25s.08-.34.25-.37c1.03-.2,1.97-.28,2.84-.17.89.11,1.71.39,2.51.91.15.1.19.29.09.44Zm.7-1.64c-.1.18-.33.25-.51.15-.92-.51-1.83-.79-2.75-.89-.92-.1-1.86-.01-2.85.24-.2.05-.41-.07-.46-.27-.05-.2.07-.41.27-.46,1.07-.27,2.1-.36,3.11-.25,1.02.11,2.02.43,3.03.98.18.1.25.33.15.51Zm.13-1.5c-1.05-.51-2.09-.8-3.14-.9-1.06-.1-2.14,0-3.27.24-.26.06-.51-.11-.57-.36-.06-.26.11-.51.36-.57,1.23-.27,2.41-.37,3.57-.26,1.17.11,2.32.43,3.47.99.24.11.34.4.22.63-.11.24-.4.34-.63.22Z"/></g></svg>